<?xml version="1.0" encoding="UTF-8"?>
<svg width="800px" height="800px" viewBox="0 0 24 24" version="1.1" xmlns="http://www.w3.org/2000/svg">
    <g stroke="none" stroke-width="1" fill="none" fill-rule="evenodd">
        <path d="M12,1 C18.0751322,1 23,5.92486775 23,12 C23,18.0751322 18.0751322,23 12,23 C5.92486775,23 1,18.0751322 1,12 C1,5.92486775 5.92486775,1 12,1 Z M12,3 C7.02943725,3 3,7.02943725 3,12 C3,16.9705627 7.02943725,21 12,21 C16.9705627,21 21,16.9705627 21,12 C21,7.02943725 16.9705627,3 12,3 Z" fill="#4A90E2" fill-rule="nonzero"/>
        <path d="M12,6.5 C14.209139,6.5 16,8.290861 16,10.5 C16,12.709139 14.209139,14.5 12,14.5 C9.790861,14.5 8,12.709139 8,10.5 C8,8.290861 9.790861,6.5 12,6.5 Z M12,8.5 C10.8954305,8.5 10,9.3954305 10,10.5 C10,11.6045695 10.8954305,12.5 12,12.5 C13.1045695,12.5 14,11.6045695 14,10.5 C14,9.3954305 13.1045695,8.5 12,8.5 Z" fill="#4A90E2" fill-rule="nonzero"/>
        <path d="M7.52750442,16.5 C8.89298396,15.5357737 10.4435885,15 12,15 C13.5564115,15 15.107016,15.5357737 16.4724956,16.5 C16.8522425,16.7733333 17,17.1066667 17,17.5 C17,17.8933333 16.8522425,18.2266667 16.4724956,18.5 C15.107016,19.4642263 13.5564115,20 12,20 C10.4435885,20 8.89298396,19.4642263 7.52750442,18.5 C7.14775754,18.2266667 7,17.8933333 7,17.5 C7,17.1066667 7.14775754,16.7733333 7.52750442,16.5 Z" fill="#4A90E2"/>
    </g>
</svg>
